# xmcd
#
# Track frame offsets:
#	150
#	25760
#	44201
#	64422
#	92322
#	125656
#	152748
#	166196
#	181514
#	201279
#	225412
#	249370
#	271475
#	299085
#
# Disc length: 4211 seconds
#
# Revision: 2
# Processed by: cddbd v1.5.2PL0 Copyright (c) Steve Scherf et al.
# Submitted via: EasyCDDAExtractor 15.2.0.1
#
DISCID=c210710e
DTITLE=gerry jablonski ant the electric band - Life At Captain Tom's
DYEAR=2011
DGENRE=blues
TTITLE0=Higher They Climb
TTITLE1=Sherry Dee
TTITLE2=Koss
TTITLE3=Hard To Make A Living
TTITLE4=High On You
TTITLE5=Merchants Of Soul
TTITLE6=Hot
TTITLE7=Slow Down
TTITLE8=Anybody
TTITLE9=Virgil Cane
TTITLE10=When The Fire Is Gone
TTITLE11=Getting Better
TTITLE12=Skinny Blue Eyed Boy
TTITLE13=Prog
EXTD=
EXTT0=
EXTT1=
EXTT2=
EXTT3=
EXTT4=
EXTT5=
EXTT6=
EXTT7=
EXTT8=
EXTT9=
EXTT10=
EXTT11=
EXTT12=
EXTT13=
PLAYORDER=
